<?xml version="1.0" encoding="UTF-8"?>
<svg id="_레이어_2" data-name="레이어 2" xmlns="http://www.w3.org/2000/svg" viewBox="0 0 596.79 227.72">
  <defs>
    <style>
      .cls-1 {
        fill: #631014;
      }

      .cls-2 {
        fill: #ed6e3e;
      }
    </style>
  </defs>
  <g id="_레이어_2-2" data-name="레이어 2">
    <g>
      <rect class="cls-1" x="32.67" y="127.58" width="79.09" height="72.18"/>
      <path class="cls-2" d="M47.31,144.94c4.29-2.45,20.92-.84,23.71-8.37h0c1.46-10.91-19.52-18.97-19.53-18.97,0,0,0,0,0,0,0,0,2.79-13.39-.56-12.55-2.79-1.67-12.15,11.83-12.15,11.84,0,0,0,0,0,0-27.62,11.43-34.16,27.5-34.16,27.5,0,0-.74,1.51-1.66,4.16-9.48,27.35,4.72,58.89,28.84,70.51,62.45,30.09,107-23.34,100.58-80.53-5.63-50.22-14.2-64.41-14.23-64.44,0,0,0,0,0,0,.05.03,36.84,20.06,54.96-15.62C191.25,22.75,138.25,3.23,138.25,3.23c0,0-44.15-14.18-70.84,16.92-5.95,6.94-11.24,14.45-14.74,23.13-5.99,14.85-5.44,31.53.92,46.23,8.01,18.51,23.31,47.41,24.12,50.14,1.4,4.74,18.41.84,20.64,1.67,6.7.84,11.16,8.93-.28,16.18h0c.56,6.42-3.63,27.06-23.71,37.66h0c-15.62-7.25-20.08-14.51-21.49-22.76h0c13.4-7.92,28.18-5.69,28.18-5.69,0,0,0,0,0,0,7.17-3.95,1.07-7.52-.28-8.09,0,0,0,0,0,0-10.88-3.35-29.99-.91-34.31-2.23-4.68-1.43-5.02-8.09.84-11.44Z"/>
    </g>
    <g>
      <path class="cls-1" d="M210.03,83.34v1.09c1.41-.73,2.49-1.09,3.24-1.09,18.8,0,31.28,6.07,37.42,18.2,2.86,6.07,4.3,9.99,4.3,11.76v1.05c0,14.27-10.7,29.25-32.11,44.92l-5.35,1.09c-7.14-1.72-10.7-4.57-10.7-8.55-2.84-10.52-6.76-29.43-11.76-56.72-1.02,0-2.08-1.07-3.2-3.2,0-.44.72-2.93,2.15-7.46h10.7l5.31-1.09ZM205.78,94.04v1.05c2.84,16.95,6.76,34.79,11.76,53.52h2.15c17.11-14.79,25.66-25.49,25.66-32.11-2.81-9.5-7.8-16.28-14.96-20.31-6.72-1.43-12.07-2.15-16.05-2.15h-8.55Z"/>
      <path class="cls-1" d="M300.03,82.28c9.79,1.48,17.64,5.76,23.55,12.81,3.54,7.73,5.31,14.87,5.31,21.41-2.53,22.21-9.65,34.69-21.37,37.42,0,1.59-3.22,2.67-9.65,3.24-17.01,0-28.05-5.35-33.12-16.05-2.87-8.07-4.3-13.42-4.3-16.05v-6.41c0-8.12,5.7-17.75,17.11-28.87,4.24-3.57,11.73-6.07,22.46-7.5ZM270.07,119.71c3.36,17.11,8.71,25.66,16.05,25.66,0,.73,2.13,1.45,6.41,2.15l2.15-1.05,2.15,1.05c8.75,0,15.52-6.05,20.31-18.16l1.09-6.45v-7.46c0-12.89-8.2-20.74-24.61-23.55-9.53,0-17.38,8.92-23.55,26.76v1.05Z"/>
      <path class="cls-1" d="M392.14,84.43h9.61c1.17,0,2.6,2.14,4.3,6.41,0,3.72-2.5,5.86-7.5,6.41l-10.7-2.15c-4.69.73-9.32,1.09-13.91,1.09h-1.05l1.05,5.35v12.81c0,6.02,1.07,18.14,3.2,36.37-2.14,2.76-3.2,4.54-3.2,5.35-6.41,0-9.61-8.55-9.61-25.66l-2.15-24.61,1.05-2.11-1.05-6.45c-9.27.73-16.04,1.8-20.31,3.2-4.45-1.43-6.95-3.22-7.5-5.35v-3.2c0-1.12,1.78-2.9,5.35-5.35.75,0,1.82.37,3.2,1.09,23.07-2.13,39.48-3.2,49.22-3.2Z"/>
      <path class="cls-1" d="M451.09,82.28c9.79,1.48,17.64,5.76,23.55,12.81,3.54,7.73,5.31,14.87,5.31,21.41-2.53,22.21-9.65,34.69-21.37,37.42,0,1.59-3.22,2.67-9.65,3.24-17.01,0-28.05-5.35-33.12-16.05-2.87-8.07-4.3-13.42-4.3-16.05v-6.41c0-8.12,5.7-17.75,17.11-28.87,4.24-3.57,11.73-6.07,22.46-7.5ZM421.13,119.71c3.36,17.11,8.71,25.66,16.05,25.66,0,.73,2.13,1.45,6.41,2.15l2.15-1.05,2.15,1.05c8.75,0,15.52-6.05,20.31-18.16l1.09-6.45v-7.46c0-12.89-8.2-20.74-24.61-23.55-9.53,0-17.38,8.92-23.55,26.76v1.05Z"/>
      <path class="cls-1" d="M512.18,73.73c11.41,0,20.31,5.7,26.72,17.11,1.43,8.26,2.15,13.24,2.15,14.96-2.58,8.36-7.21,14.06-13.91,17.11-3.57,2.16-6.42,3.24-8.55,3.24v2.11c17.11,9.22,25.66,16.71,25.66,22.46-1.43,1.74-2.15,3.18-2.15,4.3h-6.41c0-1.25-6.42-6.6-19.26-16.05-9.71-5.7-15.07-8.55-16.05-8.55v1.05c2.13,11.82,3.92,19.31,5.35,22.46-1.43,4.3-2.85,6.45-4.26,6.45h-4.3c-3.39,0-7.3-18.54-11.76-55.62l1.05-2.15c-.7-1.25-1.05-2.67-1.05-4.26h1.05l-1.05-2.15v-7.5c0-5.26,3.92-9.53,11.76-12.81v-1.09l2.15,1.09c1.35,0,5.64-.72,12.85-2.15ZM496.13,95.1l2.15,22.5c1.38-.73,2.45-1.09,3.2-1.09l9.61,1.09c12.13-3.57,18.2-9.99,18.2-19.26,0-6.02-5-10.3-15-12.85-11.09,0-17.15,3.2-18.16,9.61Z"/>
      <path class="cls-1" d="M573.24,75.88v1.05c1.38-.7,2.46-1.05,3.24-1.05,1.88.47,3.65,2.25,5.31,5.35v2.11c0,1.12-1.42,2.55-4.26,4.3h-3.2l-2.15-1.09v2.15c0,3.7,2.85,22.24,8.55,55.62,0,2.86.72,4.3,2.15,4.3,4.87-.73,8.79-1.09,11.76-1.09h1.05c.73,3.75,1.09,5.88,1.09,6.41,0,3.57-6.77,5.35-20.31,5.35,0,1.43-5,2.15-15,2.15l-1.05-2.15v-5.35c0-1.41,3.57-2.83,10.7-4.26-6.43-38.2-9.65-58.88-9.65-62.03h-1.05l-6.41,1.05c-2.87-.7-4.3-2.49-4.3-5.35,0-4.27,2.13-6.41,6.41-6.41v1.05l2.15-1.05h9.61l5.35-1.05Z"/>
    </g>
  </g>
</svg>