<svg width="210" height="240" viewBox="0 0 210 240" fill="none" xmlns="http://www.w3.org/2000/svg">
<path d="M124 8C138.359 8 150 19.6406 150 34C150 48.3594 138.359 60 124 60H123C117.887 60 113.12 58.5232 109.1 55.9746L101 58L103.331 51.0049C99.3863 46.4461 97 40.5017 97 34C97 19.6406 108.641 8 123 8H124Z" fill="white"/>
<path d="M101.602 56.8225L110.587 53.8262L112.16 54.6125C115.772 56.4145 119.788 57.375 124 57.375C138.068 57.375 149.5 46.2995 149.5 34C149.5 21.7005 138.068 10.625 124 10.625C109.932 10.625 98.5 21.7005 98.5 34C98.5 38.59 100.158 43.248 103.205 47.2303L104.671 49.1427L101.598 56.8183L101.602 56.8225ZM98.5978 62.305C98.2132 62.4339 97.7997 62.45 97.4063 62.3514C97.0128 62.2528 96.6558 62.0437 96.3774 61.7487C96.0989 61.4538 95.9108 61.0853 95.835 60.6868C95.7593 60.2884 95.7992 59.8765 95.95 59.5L99.826 49.81C96.29 45.1775 94.25 39.6355 94.25 34C94.25 19.9155 107 6.375 124 6.375C141 6.375 153.75 19.9155 153.75 34C153.75 48.0845 141 61.625 124 61.625C119.232 61.6384 114.527 60.5382 110.26 58.412L98.5978 62.3008V62.305Z" fill="#3C3C3C"/>
<path d="M124 37.4001C123.553 37.4001 123.111 37.3122 122.699 37.1413C122.286 36.9704 121.912 36.72 121.596 36.4043C121.28 36.0885 121.03 35.7137 120.859 35.3012C120.688 34.8887 120.6 34.4466 120.6 34.0001C120.6 33.5536 120.688 33.1115 120.859 32.699C121.03 32.2865 121.28 31.9117 121.596 31.5959C121.912 31.2802 122.286 31.0298 122.699 30.8589C123.111 30.688 123.553 30.6001 124 30.6001C124.902 30.6001 125.767 30.9583 126.404 31.5959C127.042 32.2336 127.4 33.0984 127.4 34.0001C127.4 34.9018 127.042 35.7666 126.404 36.4043C125.767 37.0419 124.902 37.4001 124 37.4001ZM136.75 37.4001C136.303 37.4001 135.861 37.3122 135.449 37.1413C135.036 36.9704 134.662 36.72 134.346 36.4043C134.03 36.0885 133.78 35.7137 133.609 35.3012C133.438 34.8887 133.35 34.4466 133.35 34.0001C133.35 33.5536 133.438 33.1115 133.609 32.699C133.78 32.2865 134.03 31.9117 134.346 31.5959C134.662 31.2802 135.036 31.0298 135.449 30.8589C135.861 30.688 136.303 30.6001 136.75 30.6001C137.652 30.6001 138.517 30.9583 139.154 31.5959C139.792 32.2336 140.15 33.0984 140.15 34.0001C140.15 34.9018 139.792 35.7666 139.154 36.4043C138.517 37.0419 137.652 37.4001 136.75 37.4001ZM111.25 37.4001C110.803 37.4001 110.361 37.3122 109.949 37.1413C109.536 36.9704 109.162 36.72 108.846 36.4043C108.53 36.0885 108.28 35.7137 108.109 35.3012C107.938 34.8887 107.85 34.4466 107.85 34.0001C107.85 33.5536 107.938 33.1115 108.109 32.699C108.28 32.2865 108.53 31.9117 108.846 31.5959C109.162 31.2802 109.536 31.0298 109.949 30.8589C110.361 30.688 110.803 30.6001 111.25 30.6001C112.152 30.6001 113.017 30.9583 113.654 31.5959C114.292 32.2336 114.65 33.0984 114.65 34.0001C114.65 34.9018 114.292 35.7666 113.654 36.4043C113.017 37.0419 112.152 37.4001 111.25 37.4001Z" fill="#3C3C3C"/>
<path d="M106.733 172.67C104.855 118.88 101.726 62.2419 166.502 64.736C189.347 65.6155 210 86.8207 210 105.344C210 132.079 181.523 147.235 166.502 137.403C161.99 134.45 158.405 130.925 155.779 127.265L133.645 177.656L106.733 172.67Z" fill="#B16A2D"/>
<path d="M49.8867 61C56.3584 61 61.6313 70.3288 61.8691 82H74.8203C74.9231 81.5005 75.0349 80.9988 75.1572 80.4961C78.112 68.3577 85.6934 60.0469 92.0908 61.9336C97.7076 63.5903 100.543 72.5569 99.1523 82.9355C124.678 87.699 144 110.093 144 137V182.034C144 212.41 119.376 237.034 89 237.034H35C15.67 237.034 0 221.364 0 202.034V137C6.24976e-06 112.58 15.9148 91.8768 37.9385 84.6973C37.9096 84.0796 37.8945 83.4545 37.8945 82.8232C37.8945 70.7707 43.2636 61.0002 49.8867 61Z" fill="#C4742E"/>
<path d="M7 181C7 164.431 20.4315 151 37 151H81C97.5685 151 111 164.431 111 181V183C111 207.301 91.3005 227 67 227H45C24.0132 227 7 209.987 7 189V181Z" fill="#F4F3E6"/>
<rect x="17" y="233" width="29" height="7" rx="3.5" fill="#B06A2D"/>
<rect x="68" y="233" width="29" height="7" rx="3.5" fill="#B06A2D"/>
<path d="M40.0152 83.6597C39.87 79.6402 40.7733 75.697 42.5261 72.6976C44.279 69.6982 46.7379 67.8883 49.362 67.666C51.9861 67.4437 54.5603 68.8272 56.5184 71.5122C58.4765 74.1972 59.6581 77.9638 59.8032 81.9833L49.9092 82.8215L40.0152 83.6597Z" fill="#EEA9A9"/>
<path d="M76.8744 82.2918C77.2641 80.2602 77.9117 78.2514 78.7801 76.38C79.6486 74.5086 80.7209 72.8113 81.9358 71.385C83.1508 69.9587 84.4846 68.8314 85.861 68.0673C87.2375 67.3033 88.6297 66.9175 89.9581 66.932C91.2866 66.9465 92.5253 67.361 93.6034 68.1518C94.6816 68.9427 95.5782 70.0944 96.2419 71.5412C96.9057 72.988 97.3237 74.7015 97.472 76.584C97.6203 78.4665 97.496 80.481 97.1063 82.5126L86.9903 82.4022L76.8744 82.2918Z" fill="#EEA9A9"/>
<rect x="38.8113" y="89.0667" width="4.95458" height="11.0473" rx="2.47729" fill="#333333"/>
<path d="M41.5 95C41.5 94.4477 41.9477 94 42.5 94C43.0523 94 43.5 94.4477 43.5 95V97C43.5 97.5523 43.0523 98 42.5 98C41.9477 98 41.5 97.5523 41.5 97V95Z" fill="white"/>
<rect x="75.2341" y="89.0667" width="4.95458" height="11.0473" rx="2.47729" fill="#333333"/>
<rect x="78" y="94" width="2" height="4" rx="1" fill="white"/>
<path d="M48 124V116C51.0088 116.167 57.821 114.4 59 110C59.8574 113.2 66.0239 116.167 69.5 116.5V124.5L59 124.666L48 124Z" fill="#E6E5DE"/>
<path d="M59 124.666L48 124V116C51.0088 116.167 57.821 114.4 59 110M59 124.666V110M59 124.666L69.5 124.5V116.5C66.0239 116.167 59.8574 113.2 59 110" stroke="#333333" stroke-width="0.5"/>
<path d="M45 115.5C49.3333 116.833 56.5 115.5 59 110C62 115.5 69.5 117.5 74.5 115.5" stroke="#333333" stroke-linecap="round"/>
<path d="M66.4651 105.566C63.8539 102.897 53.9448 102.773 50.9318 105.566C47.5038 108.744 54.3088 107.428 58.7948 109.352C62.812 107.303 69.5014 108.669 66.4651 105.566Z" fill="#EEA9A9"/>
</svg>
