<svg width="179" height="179" viewBox="0 0 179 179" fill="none" xmlns="http://www.w3.org/2000/svg">
<path d="M89.5 179C138.93 179 179 138.926 179 89.5C179 40.0624 138.93 0 89.5 0C40.0699 0 0 40.0699 0 89.5C0 138.926 40.0699 179 89.5 179Z" fill="#EDEDE4"/>
<path d="M48.1737 82.9852L59.8832 55.669C60.1324 55.0821 60.549 54.5817 61.0809 54.2302C61.6128 53.8787 62.2365 53.6917 62.874 53.6925H116.127C117.432 53.6925 118.603 54.4682 119.117 55.669L130.827 82.9852H137.905L125.099 53.1033C124.345 51.3471 123.094 49.8505 121.498 48.7986C119.903 47.7467 118.034 47.1857 116.123 47.1852H62.874C60.9637 47.1864 59.0956 47.7477 57.5009 48.7996C55.9062 49.8514 54.6549 51.3477 53.9017 53.1033L41.0957 82.9852H48.1737Z" fill="#EDA88F"/>
<path d="M141.57 92.7518C141.572 93.1798 141.489 93.6038 141.326 93.9994C141.163 94.3951 140.923 94.7546 140.62 95.0572C140.318 95.3598 139.958 95.5995 139.562 95.7626C139.167 95.9257 138.743 96.0089 138.315 96.0074H40.6853C39.8218 96.0074 38.9938 95.6644 38.3832 95.0539C37.7727 94.4433 37.4297 93.6153 37.4297 92.7518V86.2407C37.4307 85.3779 37.7741 84.5508 38.3845 83.9411C38.995 83.3314 39.8225 82.9889 40.6853 82.9889H138.315C138.742 82.9879 139.165 83.0713 139.56 83.2344C139.955 83.3975 140.314 83.637 140.616 83.9391C140.919 84.2413 141.158 84.6001 141.321 84.9951C141.484 85.3901 141.568 85.8134 141.567 86.2407L141.57 92.7518Z" fill="#FC703C"/>
<path d="M40.2754 98.6104L51.9402 139.456C52.7383 142.253 55.2927 144.173 58.2052 144.173H119.975C122.888 144.173 125.442 142.257 126.24 139.456L137.909 98.6104H40.2754ZM61.9157 137.666C61.5024 137.772 61.0721 137.796 60.6496 137.736C60.227 137.676 59.8205 137.533 59.4533 137.315C59.0861 137.098 58.7654 136.81 58.5097 136.468C58.2539 136.126 58.0681 135.738 57.9628 135.324L51.3547 109.35C51.2484 108.937 51.2246 108.507 51.2847 108.084C51.3449 107.662 51.4879 107.255 51.7054 106.888C51.923 106.521 52.2108 106.2 52.5525 105.944C52.8942 105.689 53.283 105.503 53.6967 105.397C54.11 105.291 54.5403 105.267 54.9628 105.327C55.3854 105.388 55.7919 105.531 56.1591 105.748C56.5263 105.966 56.847 106.254 57.1027 106.595C57.3585 106.937 57.5443 107.326 57.6496 107.739L64.2577 133.713C64.3641 134.126 64.3878 134.557 64.3277 134.979C64.2675 135.402 64.1245 135.808 63.907 136.175C63.6894 136.543 63.4016 136.863 63.0599 137.119C62.7182 137.375 62.3294 137.561 61.9157 137.666ZM74.9007 137.681C74.4767 137.737 74.0457 137.708 73.6327 137.597C73.2197 137.486 72.8328 137.294 72.4941 137.033C72.1555 136.771 71.8719 136.446 71.6597 136.074C71.4474 135.703 71.3107 135.293 71.2573 134.869L67.9011 108.832C67.8465 108.408 67.876 107.977 67.9879 107.564C68.0998 107.151 68.292 106.764 68.5535 106.425C69.0815 105.741 69.8596 105.295 70.7166 105.185C71.5736 105.075 72.4393 105.309 73.1232 105.837C73.8072 106.365 74.2534 107.143 74.3637 108L77.7013 134.023C77.8136 134.879 77.5819 135.745 77.057 136.43C76.532 137.116 75.7566 137.566 74.9007 137.681ZM92.3457 134.41C92.3457 136.2 90.8802 137.666 89.0902 137.666C88.2274 137.664 87.4004 137.32 86.7903 136.71C86.1802 136.1 85.8366 135.273 85.8346 134.41V108.377C85.8346 106.587 87.3002 105.121 89.0902 105.121C90.8802 105.121 92.3457 106.587 92.3457 108.377V134.41ZM110.343 108.765L106.927 134.869C106.871 135.292 106.733 135.7 106.52 136.07C106.306 136.439 106.022 136.763 105.684 137.023C105.345 137.283 104.959 137.474 104.547 137.585C104.135 137.695 103.705 137.723 103.282 137.668C102.858 137.612 102.45 137.474 102.081 137.261C101.711 137.047 101.387 136.763 101.127 136.425C100.867 136.086 100.677 135.7 100.566 135.288C100.456 134.876 100.427 134.446 100.483 134.023L103.884 107.937C104.028 107.111 104.486 106.372 105.161 105.875C105.836 105.377 106.677 105.159 107.509 105.266C108.34 105.373 109.099 105.796 109.627 106.447C110.155 107.099 110.411 107.929 110.343 108.765ZM120.221 135.324C120.029 136.048 119.594 136.683 118.989 137.123C118.383 137.563 117.645 137.781 116.897 137.74C116.15 137.7 115.439 137.403 114.885 136.899C114.331 136.396 113.968 135.717 113.856 134.977C113.797 134.554 113.82 134.124 113.923 133.709L121.146 107.676C121.389 106.873 121.933 106.195 122.663 105.783C123.394 105.371 124.256 105.257 125.068 105.465C125.881 105.673 126.582 106.186 127.026 106.898C127.469 107.61 127.621 108.466 127.448 109.287L120.221 135.324ZM108.616 53.0474C108.617 53.9023 108.449 54.7489 108.122 55.5388C107.795 56.3288 107.316 57.0466 106.711 57.6512C106.107 58.2559 105.39 58.7356 104.6 59.0628C103.81 59.3901 102.964 59.5585 102.109 59.5585H76.0717C74.3453 59.5585 72.6896 58.8727 71.4689 57.652C70.2482 56.4313 69.5624 54.7756 69.5624 53.0493C69.5624 51.3229 70.2482 49.6672 71.4689 48.4465C72.6896 47.2258 74.3453 46.54 76.0717 46.54H102.109C103.834 46.541 105.489 47.2269 106.709 48.4471C107.929 49.6672 108.615 51.3218 108.616 53.0474Z" fill="#FC703C"/>
</svg>
