<?xml version="1.0" encoding="utf-8" ?>
<svg baseProfile="full" height="512px" version="1.1" viewBox="0 0 512 512" width="512px" xmlns="http://www.w3.org/2000/svg" xmlns:ev="http://www.w3.org/2001/xml-events" xmlns:xlink="http://www.w3.org/1999/xlink"><defs /><path d="M 159,288 L 158,289 L 157,289 L 156,289 L 155,289 L 154,289 L 153,289 L 152,289 L 151,290 L 150,290 L 149,290 L 148,290 L 147,290 L 146,290 L 145,291 L 144,291 L 143,291 L 142,291 L 141,292 L 140,292 L 139,292 L 138,292 L 137,293 L 136,293 L 135,293 L 134,294 L 133,294 L 132,294 L 131,294 L 130,295 L 129,295 L 128,295 L 127,296 L 126,296 L 125,296 L 124,297 L 123,297 L 122,298 L 121,298 L 120,298 L 119,299 L 118,299 L 117,300 L 116,300 L 115,301 L 114,301 L 113,302 L 112,302 L 111,303 L 110,303 L 109,304 L 108,304 L 107,305 L 106,305 L 105,306 L 104,306 L 103,307 L 102,307 L 101,308 L 100,309 L 99,309 L 98,310 L 97,311 L 96,311 L 95,312 L 94,313 L 93,313 L 92,314 L 91,315 L 90,315 L 89,316 L 88,317 L 87,318 L 86,318 L 85,319 L 84,320 L 83,321 L 82,322 L 81,323 L 80,323 L 79,324 L 78,325 L 77,326 L 76,327 L 75,328 L 74,329 L 73,330 L 72,331 L 71,332 L 70,333 L 69,334 L 68,335 L 67,336 L 67,337 L 66,338 L 65,339 L 64,340 L 63,341 L 62,342 L 62,343 L 61,344 L 60,345 L 59,346 L 59,347 L 58,348 L 57,349 L 57,350 L 56,351 L 55,352 L 55,353 L 54,354 L 53,355 L 53,356 L 52,357 L 51,358 L 51,359 L 50,360 L 50,361 L 49,362 L 49,363 L 48,364 L 48,365 L 47,366 L 47,367 L 46,368 L 46,369 L 45,370 L 45,371 L 44,372 L 44,373 L 43,374 L 43,375 L 42,376 L 42,377 L 42,378 L 41,379 L 41,380 L 40,381 L 40,382 L 40,383 L 39,384 L 39,385 L 39,386 L 38,387 L 38,388 L 38,389 L 38,390 L 37,391 L 37,392 L 37,393 L 36,394 L 36,395 L 36,396 L 36,397 L 35,398 L 35,399 L 35,400 L 35,401 L 34,402 L 34,403 L 34,404 L 34,405 L 34,406 L 34,407 L 33,408 L 33,409 L 33,410 L 33,411 L 33,412 L 33,413 L 33,414 L 32,415 L 32,416 L 32,417 L 32,418 L 32,419 L 32,420 L 32,421 L 32,422 L 32,423 L 32,424 L 32,425 L 32,426 L 32,427 L 32,428 L 32,429 L 32,430 L 32,431 L 32,432 L 32,433 L 32,434 L 32,435 L 32,436 L 32,437 L 32,438 L 32,439 L 32,440 L 32,441 L 32,442 L 32,443 L 32,444 L 32,445 L 32,446 L 32,447 L 32,448 L 32,449 L 32,450 L 32,451 L 32,452 L 32,453 L 32,454 L 32,455 L 32,456 L 32,457 L 32,458 L 32,459 L 32,460 L 32,461 L 32,462 L 32,463 L 32,464 L 32,465 L 32,466 L 32,467 L 32,468 L 32,469 L 33,470 L 33,471 L 34,472 L 34,473 L 35,474 L 36,475 L 37,476 L 38,477 L 39,477 L 40,478 L 41,478 L 42,479 L 43,479 L 44,479 L 45,479 L 46,479 L 47,479 L 48,479 L 49,479 L 50,479 L 51,479 L 52,479 L 53,479 L 54,479 L 55,479 L 56,479 L 57,479 L 58,479 L 59,479 L 60,479 L 61,479 L 62,479 L 63,479 L 64,479 L 65,479 L 66,479 L 67,479 L 68,479 L 69,479 L 70,479 L 71,479 L 72,479 L 73,479 L 74,479 L 75,479 L 76,479 L 77,479 L 78,479 L 79,479 L 80,479 L 81,479 L 82,479 L 83,479 L 84,479 L 85,479 L 86,479 L 87,479 L 88,479 L 89,479 L 90,479 L 91,479 L 92,479 L 93,479 L 94,479 L 95,479 L 96,479 L 97,479 L 98,479 L 99,479 L 100,479 L 101,479 L 102,479 L 103,479 L 104,479 L 105,479 L 106,479 L 107,479 L 108,479 L 109,479 L 110,479 L 111,479 L 112,479 L 113,479 L 114,479 L 115,479 L 116,479 L 117,479 L 118,479 L 119,479 L 120,479 L 121,479 L 122,479 L 123,479 L 124,479 L 125,479 L 126,479 L 127,479 L 128,479 L 129,479 L 130,479 L 131,479 L 132,479 L 133,479 L 134,479 L 135,479 L 136,479 L 137,479 L 138,479 L 139,479 L 140,479 L 141,479 L 142,479 L 143,479 L 144,479 L 145,479 L 146,479 L 147,479 L 148,479 L 149,479 L 150,479 L 151,479 L 152,479 L 153,479 L 154,479 L 155,479 L 156,479 L 157,479 L 158,479 L 159,479 L 160,479 L 161,479 L 162,479 L 163,479 L 164,479 L 165,479 L 166,479 L 167,479 L 168,479 L 169,479 L 170,479 L 171,479 L 172,479 L 173,479 L 174,479 L 175,479 L 176,479 L 177,479 L 178,479 L 179,479 L 180,479 L 181,479 L 182,479 L 183,479 L 184,479 L 185,479 L 186,479 L 187,479 L 188,479 L 189,479 L 190,479 L 191,479 L 192,479 L 193,479 L 194,479 L 195,479 L 196,479 L 197,479 L 198,479 L 199,479 L 200,479 L 201,479 L 202,479 L 203,479 L 204,479 L 205,479 L 206,479 L 207,479 L 208,479 L 209,479 L 210,479 L 211,479 L 212,479 L 213,479 L 214,479 L 215,479 L 216,479 L 217,479 L 218,479 L 219,479 L 220,479 L 221,479 L 222,479 L 223,479 L 224,479 L 225,479 L 226,479 L 227,479 L 228,479 L 229,479 L 230,479 L 231,479 L 232,479 L 233,479 L 234,479 L 235,479 L 236,479 L 237,479 L 238,479 L 239,479 L 240,479 L 241,479 L 242,479 L 243,479 L 244,479 L 245,479 L 246,479 L 247,479 L 248,479 L 249,479 L 250,479 L 251,479 L 252,479 L 253,479 L 254,479 L 255,479 L 256,479 L 257,479 L 258,479 L 259,479 L 260,479 L 261,479 L 262,479 L 263,479 L 264,479 L 265,479 L 266,479 L 267,479 L 268,479 L 269,479 L 270,479 L 271,479 L 272,479 L 273,479 L 274,479 L 275,479 L 276,479 L 277,479 L 278,479 L 279,479 L 280,479 L 281,479 L 282,479 L 283,479 L 284,479 L 285,479 L 286,479 L 287,479 L 288,479 L 289,479 L 290,479 L 291,479 L 292,479 L 293,479 L 294,479 L 295,479 L 296,479 L 297,479 L 298,479 L 299,479 L 300,479 L 301,479 L 302,479 L 303,479 L 304,479 L 305,479 L 306,479 L 307,479 L 308,479 L 309,479 L 310,479 L 311,479 L 312,479 L 313,479 L 314,479 L 315,479 L 316,479 L 317,479 L 318,479 L 319,479 L 320,479 L 321,479 L 322,479 L 323,479 L 324,479 L 325,479 L 326,479 L 327,479 L 328,479 L 329,479 L 330,479 L 331,479 L 332,479 L 333,479 L 334,479 L 335,479 L 336,479 L 337,479 L 338,479 L 339,479 L 340,479 L 341,479 L 342,479 L 343,479 L 344,479 L 345,479 L 346,479 L 347,479 L 348,479 L 349,479 L 350,479 L 351,479 L 352,479 L 353,479 L 354,479 L 355,479 L 356,479 L 357,479 L 358,479 L 359,479 L 360,479 L 361,479 L 362,479 L 363,479 L 364,479 L 365,479 L 366,479 L 367,479 L 368,479 L 369,479 L 370,479 L 371,479 L 372,479 L 373,479 L 374,479 L 375,479 L 376,479 L 377,479 L 378,479 L 379,479 L 380,479 L 381,479 L 382,479 L 383,479 L 384,479 L 385,479 L 386,479 L 387,479 L 388,479 L 389,479 L 390,479 L 391,479 L 392,479 L 393,479 L 394,479 L 395,479 L 396,479 L 397,479 L 398,479 L 399,479 L 400,479 L 401,479 L 402,479 L 403,479 L 404,479 L 405,479 L 406,479 L 407,479 L 408,479 L 409,479 L 410,479 L 411,479 L 412,479 L 413,479 L 414,479 L 415,479 L 416,479 L 417,479 L 418,479 L 419,479 L 420,479 L 421,479 L 422,479 L 423,479 L 424,479 L 425,479 L 426,479 L 427,479 L 428,479 L 429,479 L 430,479 L 431,479 L 432,479 L 433,479 L 434,479 L 435,479 L 436,479 L 437,479 L 438,479 L 439,479 L 440,479 L 441,479 L 442,479 L 443,479 L 444,479 L 445,479 L 446,479 L 447,479 L 448,479 L 449,479 L 450,479 L 451,479 L 452,479 L 453,479 L 454,479 L 455,479 L 456,479 L 457,479 L 458,479 L 459,479 L 460,479 L 461,479 L 462,479 L 463,479 L 464,479 L 465,479 L 466,479 L 467,479 L 468,479 L 469,479 L 470,478 L 471,478 L 472,477 L 473,477 L 474,476 L 475,475 L 476,474 L 477,473 L 477,472 L 478,471 L 478,470 L 479,469 L 479,468 L 479,467 L 479,466 L 479,465 L 479,464 L 479,463 L 479,462 L 479,461 L 479,460 L 479,459 L 479,458 L 479,457 L 479,456 L 479,455 L 479,454 L 479,453 L 479,452 L 479,451 L 479,450 L 479,449 L 479,448 L 479,447 L 479,446 L 479,445 L 479,444 L 479,443 L 479,442 L 479,441 L 479,440 L 479,439 L 479,438 L 479,437 L 479,436 L 479,435 L 479,434 L 479,433 L 479,432 L 479,431 L 479,430 L 479,429 L 479,428 L 479,427 L 479,426 L 479,425 L 479,424 L 479,423 L 479,422 L 479,421 L 479,420 L 479,419 L 479,418 L 479,417 L 479,416 L 479,415 L 478,414 L 478,413 L 478,412 L 478,411 L 478,410 L 478,409 L 478,408 L 477,407 L 477,406 L 477,405 L 477,404 L 477,403 L 477,402 L 476,401 L 476,400 L 476,399 L 476,398 L 475,397 L 475,396 L 475,395 L 475,394 L 474,393 L 474,392 L 474,391 L 473,390 L 473,389 L 473,388 L 473,387 L 472,386 L 472,385 L 472,384 L 471,383 L 471,382 L 471,381 L 470,380 L 470,379 L 469,378 L 469,377 L 469,376 L 468,375 L 468,374 L 467,373 L 467,372 L 466,371 L 466,370 L 465,369 L 465,368 L 464,367 L 464,366 L 463,365 L 463,364 L 462,363 L 462,362 L 461,361 L 461,360 L 460,359 L 460,358 L 459,357 L 458,356 L 458,355 L 457,354 L 456,353 L 456,352 L 455,351 L 454,350 L 454,349 L 453,348 L 452,347 L 452,346 L 451,345 L 450,344 L 449,343 L 449,342 L 448,341 L 447,340 L 446,339 L 445,338 L 444,337 L 444,336 L 443,335 L 442,334 L 441,333 L 440,332 L 439,331 L 438,330 L 437,329 L 436,328 L 435,327 L 434,326 L 433,325 L 432,324 L 431,323 L 430,323 L 429,322 L 428,321 L 427,320 L 426,319 L 425,318 L 424,318 L 423,317 L 422,316 L 421,315 L 420,315 L 419,314 L 418,313 L 417,313 L 416,312 L 415,311 L 414,311 L 413,310 L 412,309 L 411,309 L 410,308 L 409,307 L 408,307 L 407,306 L 406,306 L 405,305 L 404,305 L 403,304 L 402,304 L 401,303 L 400,303 L 399,302 L 398,302 L 397,301 L 396,301 L 395,300 L 394,300 L 393,299 L 392,299 L 391,298 L 390,298 L 389,298 L 388,297 L 387,297 L 386,296 L 385,296 L 384,296 L 383,295 L 382,295 L 381,295 L 380,294 L 379,294 L 378,294 L 377,294 L 376,293 L 375,293 L 374,293 L 373,292 L 372,292 L 371,292 L 370,292 L 369,291 L 368,291 L 367,291 L 366,291 L 365,290 L 364,290 L 363,290 L 362,290 L 361,290 L 360,290 L 359,289 L 358,289 L 357,289 L 356,289 L 355,289 L 354,289 L 353,289 L 352,288 L 351,288 L 350,288 L 349,288 L 348,288 L 347,288 L 346,288 L 345,288 L 344,288 L 343,288 L 342,288 L 341,288 L 340,288 L 339,288 L 338,288 L 337,288 L 336,288 L 335,288 L 334,288 L 333,288 L 332,288 L 331,288 L 330,288 L 329,288 L 328,288 L 327,288 L 326,288 L 325,288 L 324,288 L 323,288 L 322,288 L 321,288 L 320,288 L 319,288 L 318,288 L 317,288 L 316,288 L 315,288 L 314,288 L 313,288 L 312,288 L 311,288 L 310,288 L 309,288 L 308,288 L 307,288 L 306,288 L 305,288 L 304,288 L 303,288 L 302,288 L 301,288 L 300,288 L 299,288 L 298,288 L 297,288 L 296,288 L 295,288 L 294,288 L 293,288 L 292,288 L 291,288 L 290,288 L 289,288 L 288,288 L 287,288 L 286,288 L 285,288 L 284,288 L 283,288 L 282,288 L 281,288 L 280,288 L 279,288 L 278,288 L 277,288 L 276,288 L 275,288 L 274,288 L 273,288 L 272,288 L 271,288 L 270,288 L 269,288 L 268,288 L 267,288 L 266,288 L 265,288 L 264,288 L 263,288 L 262,288 L 261,288 L 260,288 L 259,288 L 258,288 L 257,288 L 256,288 L 255,288 L 254,288 L 253,288 L 252,288 L 251,288 L 250,288 L 249,288 L 248,288 L 247,288 L 246,288 L 245,288 L 244,288 L 243,288 L 242,288 L 241,288 L 240,288 L 239,288 L 238,288 L 237,288 L 236,288 L 235,288 L 234,288 L 233,288 L 232,288 L 231,288 L 230,288 L 229,288 L 228,288 L 227,288 L 226,288 L 225,288 L 224,288 L 223,288 L 222,288 L 221,288 L 220,288 L 219,288 L 218,288 L 217,288 L 216,288 L 215,288 L 214,288 L 213,288 L 212,288 L 211,288 L 210,288 L 209,288 L 208,288 L 207,288 L 206,288 L 205,288 L 204,288 L 203,288 L 202,288 L 201,288 L 200,288 L 199,288 L 198,288 L 197,288 L 196,288 L 195,288 L 194,288 L 193,288 L 192,288 L 191,288 L 190,288 L 189,288 L 188,288 L 187,288 L 186,288 L 185,288 L 184,288 L 183,288 L 182,288 L 181,288 L 180,288 L 179,288 L 178,288 L 177,288 L 176,288 L 175,288 L 174,288 L 173,288 L 172,288 L 171,288 L 170,288 L 169,288 L 168,288 L 167,288 L 166,288 L 165,288 L 164,288 L 163,288 L 162,288 L 161,288 L 160,288 Z" fill="none" stroke="#333333" stroke-linecap="round" stroke-linejoin="round" stroke-width="24" /><path d="M 241,32 L 240,33 L 239,33 L 238,33 L 237,33 L 236,33 L 235,33 L 234,34 L 233,34 L 232,34 L 231,34 L 230,34 L 229,35 L 228,35 L 227,35 L 226,35 L 225,36 L 224,36 L 223,36 L 222,37 L 221,37 L 220,37 L 219,38 L 218,38 L 217,38 L 216,39 L 215,39 L 214,39 L 213,40 L 212,40 L 211,41 L 210,41 L 209,41 L 208,42 L 207,42 L 206,43 L 205,43 L 204,44 L 203,44 L 202,45 L 201,45 L 200,46 L 199,47 L 198,47 L 197,48 L 196,48 L 195,49 L 194,50 L 193,50 L 192,51 L 191,52 L 190,52 L 189,53 L 188,54 L 187,55 L 186,55 L 185,56 L 184,57 L 183,58 L 182,59 L 181,60 L 180,60 L 179,61 L 178,62 L 177,63 L 176,64 L 175,65 L 174,66 L 173,67 L 172,68 L 172,69 L 171,70 L 170,71 L 169,72 L 168,73 L 167,74 L 167,75 L 166,76 L 165,77 L 164,78 L 164,79 L 163,80 L 162,81 L 162,82 L 161,83 L 160,84 L 160,85 L 159,86 L 159,87 L 158,88 L 157,89 L 157,90 L 156,91 L 156,92 L 155,93 L 155,94 L 154,95 L 154,96 L 153,97 L 153,98 L 153,99 L 152,100 L 152,101 L 151,102 L 151,103 L 151,104 L 150,105 L 150,106 L 150,107 L 149,108 L 149,109 L 149,110 L 148,111 L 148,112 L 148,113 L 147,114 L 147,115 L 147,116 L 147,117 L 146,118 L 146,119 L 146,120 L 146,121 L 146,122 L 145,123 L 145,124 L 145,125 L 145,126 L 145,127 L 145,128 L 144,129 L 144,130 L 144,131 L 144,132 L 144,133 L 144,134 L 144,135 L 144,136 L 144,137 L 144,138 L 144,139 L 144,140 L 144,141 L 144,142 L 144,143 L 144,144 L 144,145 L 144,146 L 144,147 L 144,148 L 144,149 L 144,150 L 144,151 L 144,152 L 144,153 L 144,154 L 144,155 L 144,156 L 144,157 L 144,158 L 145,159 L 145,160 L 145,161 L 145,162 L 145,163 L 145,164 L 146,165 L 146,166 L 146,167 L 146,168 L 146,169 L 147,170 L 147,171 L 147,172 L 147,173 L 148,174 L 148,175 L 148,176 L 149,177 L 149,178 L 149,179 L 150,180 L 150,181 L 150,182 L 151,183 L 151,184 L 151,185 L 152,186 L 152,187 L 153,188 L 153,189 L 153,190 L 154,191 L 154,192 L 155,193 L 155,194 L 156,195 L 156,196 L 157,197 L 157,198 L 158,199 L 159,200 L 159,201 L 160,202 L 160,203 L 161,204 L 162,205 L 162,206 L 163,207 L 164,208 L 164,209 L 165,210 L 166,211 L 167,212 L 167,213 L 168,214 L 169,215 L 170,216 L 171,217 L 172,218 L 172,219 L 173,220 L 174,221 L 175,222 L 176,223 L 177,224 L 178,225 L 179,226 L 180,227 L 181,227 L 182,228 L 183,229 L 184,230 L 185,231 L 186,232 L 187,232 L 188,233 L 189,234 L 190,235 L 191,235 L 192,236 L 193,237 L 194,237 L 195,238 L 196,239 L 197,239 L 198,240 L 199,240 L 200,241 L 201,242 L 202,242 L 203,243 L 204,243 L 205,244 L 206,244 L 207,245 L 208,245 L 209,246 L 210,246 L 211,246 L 212,247 L 213,247 L 214,248 L 215,248 L 216,248 L 217,249 L 218,249 L 219,249 L 220,250 L 221,250 L 222,250 L 223,251 L 224,251 L 225,251 L 226,252 L 227,252 L 228,252 L 229,252 L 230,253 L 231,253 L 232,253 L 233,253 L 234,253 L 235,254 L 236,254 L 237,254 L 238,254 L 239,254 L 240,254 L 241,255 L 242,255 L 243,255 L 244,255 L 245,255 L 246,255 L 247,255 L 248,255 L 249,255 L 250,255 L 251,255 L 252,255 L 253,255 L 254,255 L 255,255 L 256,255 L 257,255 L 258,255 L 259,255 L 260,255 L 261,255 L 262,255 L 263,255 L 264,255 L 265,255 L 266,255 L 267,255 L 268,255 L 269,255 L 270,255 L 271,254 L 272,254 L 273,254 L 274,254 L 275,254 L 276,254 L 277,253 L 278,253 L 279,253 L 280,253 L 281,253 L 282,252 L 283,252 L 284,252 L 285,252 L 286,251 L 287,251 L 288,251 L 289,250 L 290,250 L 291,250 L 292,249 L 293,249 L 294,249 L 295,248 L 296,248 L 297,248 L 298,247 L 299,247 L 300,246 L 301,246 L 302,246 L 303,245 L 304,245 L 305,244 L 306,244 L 307,243 L 308,243 L 309,242 L 310,242 L 311,241 L 312,240 L 313,240 L 314,239 L 315,239 L 316,238 L 317,237 L 318,237 L 319,236 L 320,235 L 321,235 L 322,234 L 323,233 L 324,232 L 325,232 L 326,231 L 327,230 L 328,229 L 329,228 L 330,227 L 331,227 L 332,226 L 333,225 L 334,224 L 335,223 L 336,222 L 337,221 L 338,220 L 339,219 L 339,218 L 340,217 L 341,216 L 342,215 L 343,214 L 344,213 L 344,212 L 345,211 L 346,210 L 347,209 L 347,208 L 348,207 L 349,206 L 349,205 L 350,204 L 351,203 L 351,202 L 352,201 L 352,200 L 353,199 L 354,198 L 354,197 L 355,196 L 355,195 L 356,194 L 356,193 L 357,192 L 357,191 L 358,190 L 358,189 L 358,188 L 359,187 L 359,186 L 360,185 L 360,184 L 360,183 L 361,182 L 361,181 L 361,180 L 362,179 L 362,178 L 362,177 L 363,176 L 363,175 L 363,174 L 364,173 L 364,172 L 364,171 L 364,170 L 365,169 L 365,168 L 365,167 L 365,166 L 365,165 L 366,164 L 366,163 L 366,162 L 366,161 L 366,160 L 366,159 L 367,158 L 367,157 L 367,156 L 367,155 L 367,154 L 367,153 L 367,152 L 367,151 L 367,150 L 367,149 L 367,148 L 367,147 L 367,146 L 367,145 L 367,144 L 367,143 L 367,142 L 367,141 L 367,140 L 367,139 L 367,138 L 367,137 L 367,136 L 367,135 L 367,134 L 367,133 L 367,132 L 367,131 L 367,130 L 367,129 L 366,128 L 366,127 L 366,126 L 366,125 L 366,124 L 366,123 L 365,122 L 365,121 L 365,120 L 365,119 L 365,118 L 364,117 L 364,116 L 364,115 L 364,114 L 363,113 L 363,112 L 363,111 L 362,110 L 362,109 L 362,108 L 361,107 L 361,106 L 361,105 L 360,104 L 360,103 L 360,102 L 359,101 L 359,100 L 358,99 L 358,98 L 358,97 L 357,96 L 357,95 L 356,94 L 356,93 L 355,92 L 355,91 L 354,90 L 354,89 L 353,88 L 352,87 L 352,86 L 351,85 L 351,84 L 350,83 L 349,82 L 349,81 L 348,80 L 347,79 L 347,78 L 346,77 L 345,76 L 344,75 L 344,74 L 343,73 L 342,72 L 341,71 L 340,70 L 339,69 L 339,68 L 338,67 L 337,66 L 336,65 L 335,64 L 334,63 L 333,62 L 332,61 L 331,60 L 330,60 L 329,59 L 328,58 L 327,57 L 326,56 L 325,55 L 324,55 L 323,54 L 322,53 L 321,52 L 320,52 L 319,51 L 318,50 L 317,50 L 316,49 L 315,48 L 314,48 L 313,47 L 312,47 L 311,46 L 310,45 L 309,45 L 308,44 L 307,44 L 306,43 L 305,43 L 304,42 L 303,42 L 302,41 L 301,41 L 300,41 L 299,40 L 298,40 L 297,39 L 296,39 L 295,39 L 294,38 L 293,38 L 292,38 L 291,37 L 290,37 L 289,37 L 288,36 L 287,36 L 286,36 L 285,35 L 284,35 L 283,35 L 282,35 L 281,34 L 280,34 L 279,34 L 278,34 L 277,34 L 276,33 L 275,33 L 274,33 L 273,33 L 272,33 L 271,33 L 270,32 L 269,32 L 268,32 L 267,32 L 266,32 L 265,32 L 264,32 L 263,32 L 262,32 L 261,32 L 260,32 L 259,32 L 258,32 L 257,32 L 256,32 L 255,32 L 254,32 L 253,32 L 252,32 L 251,32 L 250,32 L 249,32 L 248,32 L 247,32 L 246,32 L 245,32 L 244,32 L 243,32 L 242,32 Z" fill="none" stroke="#333333" stroke-linecap="round" stroke-linejoin="round" stroke-width="24" /></svg>