<?xml version="1.0" encoding="UTF-8"?>
<svg id="_레이어_2" data-name="레이어 2" xmlns="http://www.w3.org/2000/svg" viewBox="0 0 869.67 310.31">
  <defs>
    <style>
      .cls-1 {
        fill: #631014;
      }

      .cls-2 {
        fill: #ed6e3e;
      }

      .cls-3 {
        fill: #f3f2e5;
      }
    </style>
  </defs>
  <g id="_레이어_2-2" data-name="레이어 2">
    <path class="cls-3" d="M869.67,155.16c0,23.67-12.17,33.55-34.17,46.2-22,11.93-53.84,26.63-93.19,43.09-78.69,33.82-187.4,70-307.47,65.48-120.08-4.52-228.78-3.01-307.47-25.28-39.34-11.43-71.18-30.09-93.19-55.2C12.17,205.06,0,174.22,0,155.16c0-23.67,12.17-33.55,34.17-46.2,22-11.93,53.84-26.63,93.19-43.09C206.05,32.04,314.76-4.14,434.83.38c120.08,4.52,228.78,3.01,307.47,25.28,39.34,11.43,71.18,30.09,93.19,55.2,22,24.39,34.17,55.22,34.17,74.29Z"/>
    <g>
      <g>
        <rect class="cls-1" x="228.47" y="163.52" width="48.24" height="44.03"/>
        <path class="cls-2" d="M237.4,174.11c2.62-1.5,12.76-.51,14.46-5.1h0c.89-6.65-11.91-11.57-11.91-11.57,0,0,0,0,0,0,0,0,1.7-8.17-.34-7.66-1.7-1.02-7.41,7.22-7.41,7.22,0,0,0,0,0,0-16.85,6.97-20.84,16.77-20.84,16.77,0,0-.45.92-1.01,2.54-5.78,16.68,2.88,35.92,17.59,43.01,38.09,18.36,65.26-14.24,61.35-49.12-3.44-30.63-8.66-39.29-8.68-39.31,0,0,0,0,0,0,.03.02,22.47,12.24,33.52-9.53s-21.27-33.69-21.27-33.69c0,0-26.93-8.65-43.21,10.32-3.63,4.23-6.86,8.81-8.99,14.11-3.65,9.06-3.32,19.23.56,28.2,4.88,11.29,14.22,28.92,14.71,30.58.85,2.89,11.23.51,12.59,1.02,4.08.51,6.81,5.44-.17,9.87h0c.34,3.91-2.21,16.51-14.46,22.97h0c-9.53-4.42-12.25-8.85-13.11-13.88h0c8.17-4.83,17.19-3.47,17.19-3.47,0,0,0,0,0,0,4.37-2.41.65-4.59-.17-4.93h0c-6.64-2.04-18.29-.55-20.93-1.36-2.85-.87-3.06-4.93.51-6.98Z"/>
      </g>
      <g>
        <path class="cls-1" d="M343.65,132.15v.9c1.15-.6,2.04-.9,2.66-.9,15.43,0,25.67,4.98,30.72,14.94,2.35,4.98,3.53,8.2,3.53,9.65v.87c0,11.72-8.79,24.01-26.36,36.88l-4.39.9c-5.86-1.41-8.79-3.75-8.79-7.02-2.33-8.64-5.55-24.16-9.65-46.56-.83,0-1.71-.88-2.63-2.63,0-.36.59-2.4,1.76-6.12h8.79l4.36-.9ZM340.15,140.94v.87c2.33,13.92,5.55,28.56,9.65,43.93h1.76c14.04-12.14,21.07-20.93,21.07-26.36-2.31-7.8-6.4-13.36-12.28-16.67-5.52-1.18-9.91-1.76-13.18-1.76h-7.02Z"/>
        <path class="cls-1" d="M417.52,131.28c8.04,1.22,14.48,4.72,19.34,10.52,2.91,6.35,4.36,12.21,4.36,17.57-2.07,18.23-7.92,28.47-17.54,30.72,0,1.3-2.64,2.19-7.92,2.66-13.96,0-23.02-4.39-27.19-13.18-2.35-6.63-3.53-11.02-3.53-13.18v-5.26c0-6.67,4.68-14.57,14.04-23.7,3.48-2.93,9.63-4.98,18.44-6.16ZM392.93,162c2.76,14.04,7.15,21.07,13.18,21.07,0,.6,1.75,1.19,5.26,1.76l1.76-.87,1.76.87c7.18,0,12.74-4.97,16.67-14.91l.9-5.29v-6.12c0-10.58-6.73-17.03-20.2-19.34-7.82,0-14.27,7.32-19.34,21.96v.87Z"/>
        <path class="cls-1" d="M493.14,133.05h7.89c.96,0,2.14,1.75,3.53,5.26,0,3.06-2.05,4.81-6.16,5.26l-8.79-1.76c-3.85.6-7.65.9-11.42.9h-.87l.87,4.39v10.52c0,4.94.88,14.89,2.63,29.85-1.75,2.27-2.63,3.73-2.63,4.39-5.26,0-7.89-7.02-7.89-21.07l-1.76-20.2.87-1.73-.87-5.29c-7.61.6-13.17,1.48-16.67,2.63-3.66-1.18-5.71-2.64-6.16-4.39v-2.63c0-.92,1.46-2.38,4.39-4.39.62,0,1.5.3,2.63.9,18.94-1.75,32.41-2.63,40.4-2.63Z"/>
        <path class="cls-1" d="M541.52,131.28c8.04,1.22,14.48,4.72,19.34,10.52,2.91,6.35,4.36,12.21,4.36,17.57-2.07,18.23-7.92,28.47-17.54,30.72,0,1.3-2.64,2.19-7.92,2.66-13.96,0-23.02-4.39-27.19-13.18-2.35-6.63-3.53-11.02-3.53-13.18v-5.26c0-6.67,4.68-14.57,14.04-23.7,3.48-2.93,9.63-4.98,18.44-6.16ZM516.93,162c2.76,14.04,7.15,21.07,13.18,21.07,0,.6,1.75,1.19,5.26,1.76l1.76-.87,1.76.87c7.18,0,12.74-4.97,16.67-14.91l.9-5.29v-6.12c0-10.58-6.73-17.03-20.2-19.34-7.82,0-14.27,7.32-19.34,21.96v.87Z"/>
        <path class="cls-1" d="M591.67,124.26c9.36,0,16.67,4.68,21.93,14.04,1.18,6.78,1.76,10.87,1.76,12.28-2.12,6.86-5.92,11.54-11.42,14.04-2.93,1.77-5.27,2.66-7.02,2.66v1.73c14.04,7.57,21.07,13.71,21.07,18.44-1.18,1.43-1.76,2.61-1.76,3.53h-5.26c0-1.03-5.27-5.42-15.81-13.18-7.97-4.68-12.37-7.02-13.18-7.02v.87c1.75,9.71,3.22,15.85,4.39,18.44-1.18,3.53-2.34,5.29-3.5,5.29h-3.53c-2.78,0-6-15.22-9.65-45.66l.87-1.76c-.58-1.03-.87-2.19-.87-3.5h.87l-.87-1.76v-6.16c0-4.32,3.22-7.82,9.65-10.52v-.9l1.76.9c1.11,0,4.63-.59,10.55-1.76ZM578.49,141.8l1.76,18.47c1.13-.6,2.01-.9,2.63-.9l7.89.9c9.96-2.93,14.94-8.2,14.94-15.81,0-4.94-4.1-8.45-12.31-10.55-9.11,0-14.08,2.63-14.91,7.89Z"/>
        <path class="cls-1" d="M641.79,126.03v.87c1.13-.58,2.02-.87,2.66-.87,1.54.38,2.99,1.85,4.36,4.39v1.73c0,.92-1.17,2.1-3.5,3.53h-2.63l-1.76-.9v1.76c0,3.04,2.34,18.26,7.02,45.66,0,2.35.59,3.53,1.76,3.53,4-.6,7.21-.9,9.65-.9h.87c.6,3.08.9,4.83.9,5.26,0,2.93-5.56,4.39-16.67,4.39,0,1.18-4.1,1.76-12.31,1.76l-.87-1.76v-4.39c0-1.15,2.93-2.32,8.79-3.5-5.28-31.36-7.92-48.33-7.92-50.92h-.87l-5.26.87c-2.35-.58-3.53-2.04-3.53-4.39,0-3.51,1.75-5.26,5.26-5.26v.87l1.76-.87h7.89l4.39-.87Z"/>
      </g>
    </g>
  </g>
</svg>