<svg xmlns="http://www.w3.org/2000/svg" xml:space="preserve" width="515.00262" height="185.14647" viewBox="0 0 515.00263 185.14647"><defs><clipPath id="a" clipPathUnits="userSpaceOnUse"><path d="M0 841.89h595.28V0H0Z"/></clipPath></defs><g clip-path="url(#a)" transform="matrix(1.33333 0 0 -1.33333 -139.352 893.044)"><path d="M0 0c-1.719.113-7.785.581-11.225.848v13.769c3.537-.098 9.467-.263 11.225-.301Zm78.383-4.836C74.113-2.84 68.004-.062 63.096 2.17c-3.916 1.781-7.617 3.463-8.16 3.742-1.104.579-1.17.614-1.17 1.646v4.747c3.996-.169 32.291-1.533 32.588-1.547l1.363-.066 16.304 20.871H7.041l.022-.008c-.262.004-.524.008-.792.008H-101.296l-13.522-.019h.001c-.336.013-.645.019-.92.019h-166.494l16.001-20.897 22.443 1.113v-66.545l3.343.934c6.023 1.683 12.55 3.307 20.54 5.112l2.053.464v61.245l15.078.588v12.748c.92-.236 5.518-1.763 5.518-8.603v-61.593l3.096.553a640.362 640.362 0 0 0 20.31 3.302l2.256.328v66.692c.614-.12 1.348-.314 2.134-.627.014-.003 1.472-.409 2.917-1.547 1.918-1.51 2.891-3.589 2.891-6.176l-.093-44.717c0-2.664 1.134-5.299 3.109-7.227 1.619-1.581 4.608-3.465 9.651-3.465.628 0 1.281.029 1.944.088 20.492 1.832 33.52 2.639 46.47 2.877l2.585.048V3.914l-2.658-.025a1375.796 1375.796 0 0 1-28.198-.564l-2.548-.083v-16.311l7.955.381v-5.924a186.513 186.513 0 0 1-12.432-.789v34.702c1.04.018 2.763.041 4.557.064 2.899.037 5.884.076 7.346.114V7.436l25.978.27V19.41c0 2.752-.841 5.134-2.455 7.058.167-.03.336-.061.512-.096 2.434-.601 6.517-2.24 6.517-6.466V-33.65h2.633c20.876 0 47.501-1.705 47.766-1.723l2.805-.181v15.959l-2.406.209c-11.836 1.029-21.287 1.271-25.598 1.326v8.367l24.844-.422V6.324l-24.844.521v8.785l27.259-.306v10.987c1.011-.267 6.014-1.811 6.014-6.19v-56.226l2.381-.229c.086-.008 8.717-.841 20.36-2.355l2.972-.387v23.495c1.485-.137 3.446-.319 5.625-.53l9.584-25.213 1.493-.247c7.382-1.221 14.265-2.558 20.455-3.972l4.902-1.12L18.988-17.12c4.084 1.6 6.723 5.476 6.723 10.32v23.621c0 3.888-1.113 7.114-3.252 9.526.625-.254 2.301-.999 3.572-2.181 1.627-1.487 2.451-3.383 2.451-5.633V6.996l-.003-.346c-.036-2.561-.131-9.363 10.621-14.106 3.603-1.593 7.449-3.274 10.839-4.756 5.678-2.484 10.582-4.629 11.741-5.214.699-.349.92-.504.966-.553.016-.031.161-.336.161-1.616v-15.093c-1.067.234-2.473.523-3.844.804-1.818.373-4.297.882-4.842 1.044a6.641 6.641 0 0 0-.058.972c0 2.8.066 9.525.066 9.593l.021 2.282-25.205 3.873v-15.012c0-2.41.782-14.632 16.182-18.636 10.277-2.668 19.605-5.309 24.088-6.577 1.131-.321 1.959-.555 2.416-.68a18.683 18.683 0 0 1 4.883-.657c2.433 0 4.476.504 6.074 1.498 3.746 2.293 5.566 6.527 5.566 12.944v23.744c0 5.913-.701 10.426-9.771 14.66" style="fill:#002d74;fill-opacity:1;fill-rule:nonzero;stroke:none" transform="translate(386.745 588.606)"/><path d="m58.886 48.836 9.86 29.403c.045.136.077.257.077.342 0 .364-.273.591-.635.591h-.92a.166.166 0 0 0-.168.156v1.675c0 .1.058.175.167.175h12.236c.373 0 .784-.067.92-.452l10.682-31.89c.066-.138.034-.41-.127-.614-.058-.093-.226-.208-.486-.208h-7.68c-.365 0-.779.278-.933.678L75.275 69.26s-.099.307-.291.307c-.265 0-.342-.307-.342-.307l-6.51-20.568c-.188-.4-.556-.678-.921-.678h-7.695s-.084 0-.14.02h-.015c-.132.035-.266.094-.349.23-.127.161-.19.356-.127.57M41.808 81.003c0 .062 0 .174.122.174h10.19c.38 0 .71-.321.71-.667V48.698c0-.387-.317-.684-.71-.684h-7.83a.69.69 0 0 0-.676.684v29.825c0 .356-.282.649-.651.649H41.93c-.122 0-.122.093-.122.156zM6.122 81.003c0 .1.093.174.184.174h9.987a.68.68 0 0 0 .675-.667V69.874c0-.205.133-.32.402-.32 0 0 .244 0 .48.346l7.432 10.526c.285.422.818.75 1.225.75h8.565c.226 0 .441-.12.538-.328a.678.678 0 0 0 0-.712l-9.552-14.105V66c-.045-.133-.126-.268-.126-.393 0-.151.027-.222.126-.388.139-.152 11.414-16.096 11.45-16.133.15-.25.193-.492.073-.72-.11-.206-.37-.352-.54-.352h-9.04c-.429 0-.925.297-1.19.74l-8.96 12.547-.055.034c-.1.14-.197.352-.45.352-.245 0-.378-.187-.378-.439v-12.55a.67.67 0 0 0-.675-.684H8.687a.682.682 0 0 0-.699.684v29.825c0 .356-.256.649-.613.649H6.306c-.09 0-.184.093-.184.155z" style="fill:#b51123;fill-opacity:1;fill-rule:nonzero;stroke:none;stroke-width:2.83465;stroke-miterlimit:0;stroke-dasharray:none;stroke-opacity:1" transform="translate(386.745 588.606)"/><path d="m58.886 48.836 9.86 29.403c.045.136.077.257.077.342 0 .364-.273.591-.635.591h-.92a.166.166 0 0 0-.168.156v1.675c0 .1.058.175.167.175h12.236c.373 0 .784-.067.92-.452l10.682-31.89c.066-.138.034-.41-.127-.614-.058-.093-.226-.208-.486-.208h-7.68c-.365 0-.779.278-.933.678L75.275 69.26s-.099.307-.291.307c-.265 0-.342-.307-.342-.307l-6.51-20.568c-.188-.4-.556-.678-.921-.678h-7.695s-.084 0-.14.02h-.015c-.132.035-.266.094-.349.23-.127.161-.19.356-.127.57M41.808 81.003c0 .062 0 .174.122.174h10.19c.38 0 .71-.321.71-.667V48.698c0-.387-.317-.684-.71-.684h-7.83a.69.69 0 0 0-.676.684v29.825c0 .356-.282.649-.651.649H41.93c-.122 0-.122.093-.122.156zM6.122 81.003c0 .1.093.174.184.174h9.987a.68.68 0 0 0 .675-.667V69.874c0-.205.133-.32.402-.32 0 0 .244 0 .48.346l7.432 10.526c.285.422.818.75 1.225.75h8.565c.226 0 .441-.12.538-.328a.678.678 0 0 0 0-.712l-9.552-14.105V66c-.045-.133-.126-.268-.126-.393 0-.151.027-.222.126-.388.139-.152 11.414-16.096 11.45-16.133.15-.25.193-.492.073-.72-.11-.206-.37-.352-.54-.352h-9.04c-.429 0-.925.297-1.19.74l-8.96 12.547-.055.034c-.1.14-.197.352-.45.352-.245 0-.378-.187-.378-.439v-12.55a.67.67 0 0 0-.675-.684H8.687a.682.682 0 0 0-.699.684v29.825c0 .356-.256.649-.613.649H6.306c-.09 0-.184.093-.184.155z" style="fill:#b51123;fill-opacity:1;fill-rule:nonzero;stroke:none;stroke-width:.999997" transform="translate(386.745 588.606)"/><path d="M0 0h-71.491l11.918-15.565 23.827 1.182v-65.842c6.807 1.901 13.746 3.581 20.668 5.144v61.674L0-12.82Z" style="fill:#b51123;fill-opacity:1;fill-rule:nonzero;stroke:none" transform="translate(181.338 617.535)"/><path d="M0 0h-28.112s7.717-1.539 7.717-11.207v-58.449A635.313 635.313 0 0 0 0-66.338z" style="fill:#b51123;fill-opacity:1;fill-rule:nonzero;stroke:none" transform="translate(212.518 617.535)"/><path d="M0 0v-11l7.956.38v-11.256c-7.791-.141-13.183-.687-15.45-.901-2.249-.207-2.249 1.075-2.249 2.092v36.084c0 .943.322 1.754 1.662 1.821 1.349.049 11.463.14 13.35.215 1.885.049 2.157-.546 2.157-1.514V9.403l20.711.216v9.097c0 7.485-7.858 9.52-13.118 9.52h-53.072s7.791-1.985 7.791-10.281l-.092-44.711c0-3.763 3.226-8.742 11.836-7.981 21.19 1.894 34.066 2.655 46.655 2.887V.562C13.026.422 0 0 0 0" style="fill:#b51123;fill-opacity:1;fill-rule:nonzero;stroke:none" transform="translate(255.99 589.299)"/><path d="M0 0v13.664l24.846-.422v11.181L0 24.945v14.027l27.26-.306v10.942h-55.711c6.898-1.704 8.519-6.013 8.519-9.023v-50.923c21.205 0 47.936-1.728 47.936-1.728v10.735C11.629.092 0 0 0 0" style="fill:#b51123;fill-opacity:1;fill-rule:nonzero;stroke:none" transform="translate(313.9 567.927)"/><path d="M0 0c0-1.943-.861-2.234-2.482-2.108-1.62.09-14.008 1.057-14.008 1.057v18.915s12.025-.339 14.109-.38C-.266 17.435 0 16.393 0 15.11Zm12.77-14.713c4.666.347 7.675 3.853 7.675 8.452V17.36c0 10.454-8.832 12.108-16.806 12.108h-48.846s8.269-1.778 8.269-8.808v-53.834s8.62-.826 20.448-2.365v23.381s4.562-.405 10.138-.951l9.627-25.325c6.996-1.157 14.092-2.514 20.61-4.003z" style="fill:#b51123;fill-opacity:1;fill-rule:nonzero;stroke:none" transform="translate(389.378 588.066)"/><path d="m0 0-19.916 3.061V-8.882c0-3.177 1.355-12.745 14.209-16.087 12.869-3.341 24.232-6.633 26.549-7.269 2.314-.645 6.351-1.026 8.865.546 2.549 1.554 4.318 4.614 4.318 10.702V2.754c0 5.046-.281 8.553-8.254 12.274C17.83 18.742 3.557 25.143 2.217 25.829c-1.356.713-2.58 1.398-2.58 3.979v5.335c0 1.256.427 2.108 2.347 2.059 1.952-.066 33-1.564 33-1.564l12.141 15.541h-75.543s2.711-.943 4.73-2.82c2.018-1.845 3.307-4.359 3.307-7.576V29.246c0-2.209-.627-7.775 9.051-12.043 9.691-4.284 20.758-9.048 22.693-10.024 1.936-.968 2.58-1.538 2.58-4.524v-15.896c0-1.373 0-2.514-2.431-1.943-2.414.57-8.783 1.778-9.76 2.108-.959.307-1.82.637-1.82 3.457C-.068-6.773 0 0 0 0" style="fill:#b51123;fill-opacity:1;fill-rule:nonzero;stroke:none" transform="translate(438.241 566.356)"/></g></svg>